<?xml version="1.0" encoding="utf-8"?>
<!-- Svg Vector Icons : http://www.sfont.cn -->
<!DOCTYPE svg PUBLIC "-//W3C//DTD SVG 1.1//EN" "http://www.w3.org/Graphics/SVG/1.1/DTD/svg11.dtd">
<svg version="1.1" xmlns="http://www.w3.org/2000/svg" xmlns:xlink="http://www.w3.org/1999/xlink" x="0px" y="0px" viewBox="0 0 1000 1000" enable-background="new 0 0 1000 1000" xml:space="preserve">
<metadata> Svg Vector Icons : http://www.sfont.cn </metadata>
<g><g transform="matrix(1 0 0 -1 0 1536)"><path d="M988.6,1275.2c7.8-21.8-17.7-71.8-76.5-150c-8.2-10.9-19.2-25.3-33.2-43.4c-26.5-34-41.8-56.3-45.9-66.8c-5.8-13.9-3.4-27.7,7.1-41.3c5.8-7.1,19.6-21.1,41.3-41.8h0.5l0.5-0.5l0.5-0.5l1-1c48-44.6,80.4-82.1,97.5-112.8c1-1.7,2.1-3.8,3.3-6.4s2.4-7.1,3.6-13.5c1.2-6.5,1.1-12.2-0.3-17.3s-5.6-9.8-12.8-14c-7.1-4.3-17.2-6.4-30.1-6.4l-130.6-2c-8.2-1.7-17.7-0.9-28.6,2.6c-10.9,3.4-19.7,7.1-26.5,11.2l-10.2,6.1c-10.2,7.1-22.1,18-35.7,32.7c-13.6,14.6-25.3,27.8-35,39.5c-9.7,11.7-20.1,21.6-31.1,29.6c-11.1,8-20.7,10.6-28.8,7.9c-1-0.3-2.4-0.9-4.1-1.8s-4.6-3.3-8.7-7.4c-4.1-4.1-7.7-9.1-11-15.1c-3.2-6-6.1-14.8-8.7-26.5c-2.6-11.7-3.7-24.9-3.3-39.5c0-5.1-0.6-9.8-1.8-14c-1.2-4.3-2.5-7.4-3.8-9.4l-2-2.6c-6.1-6.5-15.1-10.2-27-11.2h-58.7c-24.2-1.4-49,1.4-74.5,8.4c-25.5,7-47.9,16-67.1,27s-36.7,22.3-52.6,33.7s-27.8,21.2-36,29.3l-12.8,12.2c-3.4,3.4-8.1,8.5-14,15.3c-6,6.8-18.1,22.3-36.5,46.4c-18.4,24.2-36.4,49.8-54.1,77c-17.7,27.2-38.5,63.1-62.5,107.7c-24,44.6-46.2,90.8-66.6,138.8c-2,5.4-3.1,10-3.1,13.8s0.5,6.5,1.5,8.2l2,3.1c5.1,6.5,14.8,9.7,29.1,9.7l139.8,1c4.1-0.7,8-1.8,11.7-3.3c3.7-1.5,6.5-3,8.2-4.3l2.6-1.5c5.4-3.7,9.5-9.2,12.2-16.3c6.8-17,14.6-34.6,23.5-52.8s15.8-32.1,20.9-41.6l8.2-14.8c9.9-20.4,19.4-38.1,28.6-53.1s17.4-26.6,24.7-35s14.4-14.9,21.2-19.6c6.8-4.8,12.6-7.1,17.3-7.1c4.8,0,9.4,0.9,13.8,2.6c0.7,0.3,1.5,1.2,2.6,2.6c1,1.4,3.1,5.1,6.1,11.2c3.1,6.1,5.4,14.1,6.9,24c1.5,9.9,3.1,23.6,4.8,41.3c1.7,17.7,1.7,38.9,0,63.8c-0.7,13.6-2.2,26-4.6,37.2c-2.4,11.2-4.8,19-7.1,23.5l-3.1,6.1c-8.5,11.6-23,18.9-43.4,21.9c-4.4,0.7-3.6,4.8,2.6,12.2c5.8,6.5,12.2,11.6,19.4,15.3c18,8.8,58.7,12.9,121.9,12.2c27.9-0.3,50.9-2.6,68.9-6.6c6.8-1.7,12.5-4,17.1-6.9c4.6-2.9,8.1-7,10.5-12.2c2.4-5.3,4.2-10.7,5.4-16.3c1.2-5.6,1.8-13.4,1.8-23.2s-0.2-19.2-0.5-28.1c-0.3-8.8-0.8-20.8-1.3-36s-0.8-29.2-0.8-42.1c0-3.7-0.2-10.9-0.5-21.4c-0.3-10.5-0.4-18.7-0.3-24.5c0.2-5.8,0.8-12.7,1.8-20.7c1-8,3-14.6,5.9-19.9c2.9-5.3,6.7-9.4,11.5-12.5c2.7-0.7,5.6-1.4,8.7-2s7.5,1.2,13.3,5.6c5.8,4.4,12.2,10.3,19.4,17.6c7.1,7.3,16,18.7,26.5,34.2c10.5,15.5,22.1,33.8,34.7,54.8c20.4,35.4,38.6,73.6,54.6,114.8c1.4,3.4,3.1,6.4,5.1,8.9c2,2.6,3.9,4.3,5.6,5.4l2,1.5l2.6,1.3c0,0,2.2,0.5,6.6,1.5c4.4,1,7.8,1.1,10.2,0.3l146.9,1c13.3,1.7,24.2,1.3,32.7-1.3s13.8-5.4,15.8-8.4L988.6,1275.2z"/></g></g>
</svg>